<!DOCTYPE svg PUBLIC "-//W3C//DTD SVG 1.1//EN" "http://www.w3.org/Graphics/SVG/1.1/DTD/svg11.dtd">
<!-- Uploaded to: SVG Repo, www.svgrepo.com, Transformed by: SVG Repo Mixer Tools -->
<svg fill="#ffffff" height="800px" width="800px" version="1.1" id="Layer_1" xmlns="http://www.w3.org/2000/svg" xmlns:xlink="http://www.w3.org/1999/xlink" viewBox="-51.2 -51.2 614.40 614.40" xml:space="preserve" stroke="#ffffff">
<g id="SVGRepo_bgCarrier" stroke-width="0">
<rect x="-51.2" y="-51.2" width="614.40" height="614.40" rx="0" fill="#3246c7" strokewidth="0"/>
</g>
<g id="SVGRepo_tracerCarrier" stroke-linecap="round" stroke-linejoin="round"/>
<g id="SVGRepo_iconCarrier"> <g> <g> <path d="M434.179,320.171l-50.505-50.505c7.398-26.867,2.815-55.042-12.16-77.844c-2.773-4.224-8.76-4.786-12.333-1.213 c-0.039,0.039-0.077,0.077-0.115,0.115c-2.69,2.69-3.096,6.89-1.013,10.075c13.13,20.078,16.589,45.14,8.807,68.616 c-0.961,2.902-0.205,6.099,1.957,8.26l49.626,49.626c-9.337,16.329-20.845,31.38-34.268,44.804 c-17.845,17.845-38.357,32.169-61.036,42.631l-45.69-45.691c-2.134-2.134-5.295-2.946-8.159-1.992 c-6.067,2.02-12.332,3.296-18.694,3.818l25.952-25.951c7.996-7.997,8.248-21.462,0.552-29.402 c-1.16-1.196-2.438-2.236-3.808-3.105l21.092-21.092c4.839-4.839,7.295-11.701,6.156-18.449 c-1.422-8.423-7.71-14.916-16.351-17.104c-5.249-1.329-11.753,0.185-16.284,3.625c-0.887-1.422-1.954-2.745-3.191-3.944 c-5.079-4.923-12.418-6.593-19.143-5.066c-1.069-2.545-2.653-4.872-4.699-6.854c-5.081-4.925-12.421-6.595-19.143-5.067 c-1.069-2.545-2.654-4.872-4.699-6.854c-7.942-7.698-21.406-7.445-29.402,0.552l-50.732,50.733 c-2.403,2.403-4.533,4.995-6.406,7.73l-40.159-40.158c-6.272-6.273-6.735-16.477-1.029-22.746 c3.013-3.311,7.126-5.192,11.58-5.298c4.453-0.107,8.648,1.573,11.801,4.724l22.845,22.845c1.578,1.578,3.648,2.368,5.716,2.368 s4.138-0.789,5.716-2.368c3.157-3.157,3.157-8.276,0-11.432l-22.845-22.845l-10.938-10.938 c-6.273-6.273-6.735-16.477-1.029-22.747c3.013-3.311,7.126-5.192,11.58-5.297c4.457-0.116,8.647,1.573,11.798,4.722 c0.001,0.001,0.002,0.002,0.002,0.003l34.267,34.267c1.578,1.578,3.648,2.368,5.716,2.368s4.138-0.789,5.716-2.368 c3.157-3.157,3.157-8.276,0-11.432l-34.262-34.262c-0.002-0.002-0.003-0.003-0.005-0.005l-10.938-10.938 c-6.272-6.273-6.735-16.477-1.029-22.746c3.013-3.311,7.126-5.192,11.58-5.298c4.482-0.109,8.649,1.573,11.801,4.724l45.69,45.69 c1.578,1.578,3.648,2.368,5.716,2.368s4.138-0.789,5.716-2.368c3.157-3.157,3.157-8.276,0-11.432l-68.051-68.051 c-6.273-6.273-6.736-16.477-1.03-22.746c3.014-3.311,7.126-5.192,11.581-5.298c4.457-0.113,8.649,1.573,11.801,4.724 l102.802,102.802c1.578,1.578,3.648,2.368,5.716,2.368s4.138-0.789,5.716-2.368c3.157-3.157,3.157-8.276,0-11.432l-33.915-33.915 c-3.146-3.146-5.101-7.38-5.082-11.831c0.019-4.578,1.911-8.817,5.301-11.902c6.27-5.704,16.473-5.243,22.747,1.03l59.576,59.576 c3.129,3.129,8.202,3.129,11.331,0l0.102-0.102c3.129-3.129,3.129-8.202,0-11.331l-59.576-59.576 c-12.495-12.496-32.289-13.178-45.061-1.555c-4.673,4.253-7.92,9.609-9.496,15.532l-48.728-48.728 c-6.308-6.308-14.718-9.671-23.613-9.455c-8.916,0.209-17.141,3.967-23.159,10.578c-11.624,12.772-10.941,32.565,1.555,45.06 l2.555,2.555c-5.923,1.577-11.278,4.824-15.531,9.497c-9.008,9.898-10.625,24.016-5.079,35.683 c-6.809,1.301-12.984,4.752-17.766,10.007c-9.009,9.899-10.625,24.016-5.079,35.683c-6.809,1.301-12.983,4.752-17.765,10.007 c-11.624,12.772-10.941,32.565,1.554,45.06l44.282,44.282c-2.019,7.093-2.582,14.611-1.539,22.146l-29.396,25.558 c-1.758,1.528-2.786,3.77-2.793,6.107c-0.086,31.171,14.572,49.524,26.883,59.432c13.18,10.607,26.322,13.948,27.777,14.294 c0.617,0.147,1.241,0.218,1.863,0.218c1.967,0,3.899-0.717,5.396-2.044l37.718-33.443c16.079,3.205,32.742-1.093,45.25-11.625 c3.22,0.329,6.488,0.528,9.711,0.493c8.612-0.003,17.131-1.15,25.389-3.414l46.201,46.201c1.548,1.548,3.615,2.368,5.718,2.368 c1.078,0,2.164-0.216,3.195-0.659c26.553-11.432,50.459-27.674,71.057-48.271c15.968-15.969,29.42-34.082,39.983-53.838 C437.272,326.559,436.698,322.689,434.179,320.171z M226.304,372.299c-9.695,9.694-23.935,13.345-37.16,9.533 c-2.66-0.767-5.564-0.113-7.637,1.727l-37.478,33.23c-10.152-3.667-36.779-16.727-38.336-53.174l30.017-26.098 c2.252-1.959,3.261-5.039,2.583-7.962c-2.97-12.805,0.783-25.976,10.037-35.231l50.732-50.733c1.797-1.797,5.06-1.979,6.716-0.375 c0.886,0.859,1.38,2.01,1.389,3.241c0.01,1.232-0.465,2.39-1.336,3.261L193.91,261.64c-3.157,3.157-3.157,8.276,0,11.432 c1.578,1.578,3.648,2.368,5.716,2.368s4.138-0.789,5.716-2.368l11.916-11.915c0.002-0.002,0.003-0.003,0.005-0.005l5.64-5.639 c1.796-1.798,5.059-1.979,6.716-0.375c0.886,0.859,1.38,2.01,1.389,3.241c0.01,1.232-0.465,2.39-1.336,3.261l-17.881,17.881 c-3.157,3.157-3.157,8.276,0,11.432c1.578,1.578,3.648,2.368,5.716,2.368s4.138-0.789,5.716-2.368l23.521-23.521 c1.797-1.798,5.061-1.979,6.716-0.375c0.886,0.859,1.38,2.01,1.389,3.241c0.01,1.232-0.465,2.39-1.336,3.261l-23.842,23.842 c-3.157,3.157-3.157,8.276,0,11.432c1.578,1.578,3.648,2.368,5.716,2.368s4.138-0.789,5.716-2.368l36.513-36.513 c0.499-0.457,2.031-0.953,2.602-0.882c2.904,0.735,3.925,2.381,4.268,3.634c0.437,1.585-0.013,3.289-1.171,4.446l-53.645,53.645 c-3.157,3.157-3.157,8.276,0,11.432c1.578,1.578,3.648,2.368,5.716,2.368s4.138-0.789,5.716-2.368l17.881-17.881 c0.871-0.871,2.015-1.334,3.261-1.336c1.231,0.01,2.382,0.503,3.241,1.391c1.604,1.655,1.422,4.918-0.375,6.716L226.304,372.299z"/> </g> </g> <g> <g> <path d="M437.019,74.981C388.667,26.628,324.379,0,256,0S123.333,26.628,74.981,74.981C26.628,123.333,0,187.621,0,256 s26.628,132.667,74.981,181.019C123.333,485.372,187.621,512,256,512s132.667-26.628,181.019-74.981S512,324.379,512,256 S485.372,123.333,437.019,74.981z M256,495.832C123.756,495.832,16.168,388.244,16.168,256S123.756,16.168,256,16.168 S495.832,123.756,495.832,256S388.244,495.832,256,495.832z"/> </g> </g> </g>
</svg>